<?xml version="1.0" encoding="utf-8"?>
<svg width="100%" height="100%" viewBox="-105.0 -105.0 210.0 210.0" preserveAspectRatio="xMidYMid meet" version="1.1" baseProfile="full" xmlns="http://www.w3.org/2000/svg">
<g style="stroke:#fff; stroke-width: 0.04065309377891672; stroke-linejoin: round;">
<path fill="#170" fill-opacity="0.6" d="m-38.19660112501052,0.0, l-5.901699437494742,4.287835628845247 l-5.901699437494742,-4.287835628845247 l5.901699437494742,-4.287835628845247z"/>
<path fill="#835" fill-opacity="0.6" d="m-44.09830056250526,-4.287835628845247, l5.901699437494742,4.287835628845247 l-2.254248593736854,-6.937863785644388 l-5.901699437494742,-4.287835628845247z"/>
<path fill="#bc6" fill-opacity="0.6" d="m-44.09830056250526,4.287835628845247, l5.901699437494742,-4.287835628845247 l-2.254248593736854,6.937863785644388 l-5.901699437494742,4.287835628845247z"/>
<path fill="#42e" fill-opacity="0.6" d="m-30.901699437494738,-13.87572757128878, l-2.2542485937368575,6.9378637856443905 l-7.294901687515775,8.881784197001252e-16 l2.2542485937368575,-6.9378637856443905z"/>
<path fill="#cc0" fill-opacity="0.6" d="m-30.90169943749474,-0.0, l-2.254248593736854,-6.937863785644389 l-7.294901687515775,8.881784197001252e-16 l2.254248593736854,6.937863785644389z"/>
<path fill="#cc4" fill-opacity="0.6" d="m-30.90169943749474,0.0, l-2.254248593736854,6.937863785644389 l-7.294901687515775,-8.881784197001252e-16 l2.254248593736854,-6.937863785644389z"/>
<path fill="#2f9" fill-opacity="0.6" d="m-30.901699437494738,13.87572757128878, l-2.2542485937368575,-6.9378637856443905 l-7.294901687515775,-8.881784197001252e-16 l2.2542485937368575,6.9378637856443905z"/>
<path fill="#22a" fill-opacity="0.6" d="m-33.155948031231596,-6.937863785644389, l2.2542485937368575,-6.9378637856443905 l2.2542485937368575,6.937863785644391 l-2.2542485937368575,6.9378637856443905z"/>
<path fill="#59f" fill-opacity="0.6" d="m-33.155948031231596,6.937863785644389, l2.2542485937368575,6.9378637856443905 l2.2542485937368575,-6.937863785644391 l-2.2542485937368575,-6.9378637856443905z"/>
<path fill="#92e" fill-opacity="0.6" d="m-24.999999999999996,-4.287835628845247, l-5.901699437494745,4.287835628845247 l2.254248593736861,-6.937863785644388 l5.901699437494745,-4.287835628845247z"/>
<path fill="#dc9" fill-opacity="0.6" d="m-24.999999999999996,4.287835628845247, l-5.901699437494745,-4.287835628845247 l2.254248593736861,6.937863785644388 l5.901699437494745,4.287835628845247z"/>
<path fill="#d46" fill-opacity="0.6" d="m-24.999999999999993,-18.163563200134025, l-5.901699437494745,4.2878356288452455 l2.2542485937368575,6.937863785644391 l5.901699437494745,-4.2878356288452455z"/>
<path fill="#af8" fill-opacity="0.6" d="m-24.999999999999993,18.163563200134025, l-5.901699437494745,-4.2878356288452455 l2.2542485937368575,-6.937863785644391 l5.901699437494745,4.2878356288452455z"/>
<path fill="#e9" fill-opacity="0.6" d="m-30.90169943749474,0.0, l5.901699437494745,4.287835628845247 l5.901699437494738,-4.287835628845247 l-5.901699437494745,-4.287835628845247z"/>
<path fill="#8ee" fill-opacity="0.6" d="m-22.74575140626314,-11.225699414489638, l-2.2542485937368575,6.9378637856443905 l5.901699437494738,4.287835628845247 l2.2542485937368575,-6.9378637856443905z"/>
<path fill="#b39" fill-opacity="0.6" d="m-22.74575140626314,11.225699414489638, l-2.2542485937368575,-6.9378637856443905 l5.901699437494738,-4.287835628845247 l2.2542485937368575,6.9378637856443905z"/>
<path fill="#ae5" fill-opacity="0.6" d="m-24.999999999999993,-18.163563200134025, l7.294901687515768,0.0 l2.254248593736854,6.937863785644392 l-7.294901687515768,-0.0z"/>
<path fill="#bb7" fill-opacity="0.6" d="m-24.999999999999993,18.163563200134025, l7.294901687515768,0.0 l2.254248593736854,-6.937863785644392 l-7.294901687515768,-0.0z"/>
<path fill="#12b" fill-opacity="0.6" d="m-17.705098312484225,-18.163563200134025, l5.901699437494743,-4.287835628845247 l-7.29490168751577,0.0 l-5.901699437494743,4.287835628845247z"/>
<path fill="#9f0" fill-opacity="0.6" d="m-17.705098312484225,18.163563200134025, l5.901699437494743,4.287835628845247 l-7.29490168751577,0.0 l-5.901699437494743,-4.287835628845247z"/>
<path fill="#d26" fill-opacity="0.6" d="m-16.8440519687684,-6.937863785644387, l7.294901687515775,-3.552713678800501e-15 l-5.901699437494745,-4.287835628845242 l-7.294901687515775,3.552713678800501e-15z"/>
<path fill="#8ac" fill-opacity="0.6" d="m-16.8440519687684,6.937863785644387, l7.294901687515775,3.552713678800501e-15 l-5.901699437494745,4.287835628845242 l-7.294901687515775,-3.552713678800501e-15z"/>
<path fill="#102" fill-opacity="0.6" d="m-9.549150281252626,-6.9378637856443905, l-2.2542485937368575,6.9378637856443905 l-7.294901687515775,0.0 l2.2542485937368575,-6.9378637856443905z"/>
<path fill="#d70" fill-opacity="0.6" d="m-9.549150281252626,6.9378637856443905, l-2.2542485937368575,-6.9378637856443905 l-7.294901687515775,0.0 l2.2542485937368575,6.9378637856443905z"/>
<path fill="#be1" fill-opacity="0.6" d="m-9.549150281252624,-29.389262614623657, l-2.2542485937368575,6.937863785644385 l-7.29490168751577,0.0 l2.2542485937368575,-6.937863785644385z"/>
<path fill="#5cf" fill-opacity="0.6" d="m-9.549150281252624,29.389262614623657, l-2.2542485937368575,-6.937863785644385 l-7.29490168751577,0.0 l2.2542485937368575,6.937863785644385z"/>
<path fill="#f0b" fill-opacity="0.6" d="m-11.803398874989481,-22.451398828979272, l2.2542485937368557,6.937863785644392 l-5.901699437494745,4.287835628845247 l-2.2542485937368557,-6.937863785644392z"/>
<path fill="#452" fill-opacity="0.6" d="m-11.803398874989481,22.451398828979272, l2.2542485937368557,-6.937863785644392 l-5.901699437494745,-4.287835628845247 l-2.2542485937368557,6.937863785644392z"/>
<path fill="#a38" fill-opacity="0.6" d="m-11.803398874989483,0.0, l2.2542485937368575,6.9378637856443905 l2.254248593736854,-6.9378637856443905 l-2.2542485937368575,-6.9378637856443905z"/>
<path fill="#448" fill-opacity="0.6" d="m-3.6474508437578823,-11.225699414489638, l-5.901699437494743,-4.287835628845242 l-5.901699437494745,4.287835628845247 l5.901699437494743,4.287835628845242z"/>
<path fill="#95" fill-opacity="0.6" d="m-3.6474508437578823,11.225699414489638, l-5.901699437494743,4.287835628845242 l-5.901699437494745,-4.287835628845247 l5.901699437494743,-4.287835628845242z"/>
<path fill="#a54" fill-opacity="0.6" d="m-9.549150281252626,-15.51353504333488, l-2.2542485937368557,-6.937863785644392 l5.901699437494743,4.287835628845251 l2.2542485937368557,6.937863785644392z"/>
<path fill="#b7b" fill-opacity="0.6" d="m-9.549150281252626,15.51353504333488, l-2.2542485937368557,6.937863785644392 l5.901699437494743,-4.287835628845251 l2.2542485937368557,-6.937863785644392z"/>
<path fill="#6e1" fill-opacity="0.6" d="m-9.549150281252624,-29.389262614623657, l5.901699437494742,4.287835628845244 l-2.2542485937368557,6.937863785644392 l-5.901699437494742,-4.287835628845244z"/>
<path fill="#351" fill-opacity="0.6" d="m-9.549150281252624,29.389262614623657, l5.901699437494742,-4.287835628845244 l-2.2542485937368557,-6.937863785644392 l-5.901699437494742,4.287835628845244z"/>
<path fill="#21b" fill-opacity="0.6" d="m-3.6474508437578823,-11.225699414489638, l2.2542485937368566,6.93786378564439 l-5.901699437494746,4.287835628845248 l-2.2542485937368566,-6.93786378564439z"/>
<path fill="#ded" fill-opacity="0.6" d="m-3.6474508437578823,11.225699414489638, l2.2542485937368566,-6.93786378564439 l-5.901699437494746,-4.287835628845248 l-2.2542485937368566,6.93786378564439z"/>
<path fill="#c1e" fill-opacity="0.6" d="m-1.3932022500210266,-18.16356320013402, l-2.2542485937368557,6.937863785644383 l-2.2542485937368557,-6.937863785644383 l2.2542485937368557,-6.937863785644383z"/>
<path fill="#557" fill-opacity="0.6" d="m-1.3932022500210266,18.16356320013402, l-2.2542485937368557,-6.937863785644383 l-2.2542485937368557,6.937863785644383 l2.2542485937368557,6.937863785644383z"/>
<path fill="#247" fill-opacity="0.6" d="m-9.549150281252624,-29.389262614623657, l5.901699437494742,4.287835628845244 l5.901699437494743,-4.28783562884524 l-5.901699437494742,-4.287835628845244z"/>
<path fill="#2b6" fill-opacity="0.6" d="m-9.549150281252624,29.389262614623657, l5.901699437494742,-4.287835628845244 l5.901699437494743,4.28783562884524 l-5.901699437494742,4.287835628845244z"/>
<path fill="#b5a" fill-opacity="0.6" d="m4.5084971874737185,0.0, l-5.901699437494744,4.287835628845248 l-5.901699437494746,-4.287835628845248 l5.901699437494744,-4.287835628845248z"/>
<path fill="#99a" fill-opacity="0.6" d="m-1.393202250021026,-4.287835628845248, l5.901699437494744,4.287835628845248 l-2.254248593736857,-6.9378637856443905 l-5.901699437494744,-4.287835628845248z"/>
<path fill="#ec9" fill-opacity="0.6" d="m-1.393202250021026,4.287835628845248, l5.901699437494744,-4.287835628845248 l-2.254248593736857,6.9378637856443905 l-5.901699437494744,4.287835628845248z"/>
<path fill="#8b6" fill-opacity="0.6" d="m-3.6474508437578823,-33.677098243468905, l7.2949016875157735,7.105427357601002e-15 l2.2542485937368557,-6.937863785644389 l-7.2949016875157735,-7.105427357601002e-15z"/>
<path fill="#d8a" fill-opacity="0.6" d="m-3.6474508437578823,-25.101426985778414, l2.2542485937368557,6.937863785644392 l7.2949016875157735,-3.552713678800501e-15 l-2.2542485937368557,-6.937863785644392z"/>
<path fill="#475" fill-opacity="0.6" d="m-3.6474508437578823,-11.225699414489638, l7.2949016875157735,1.7763568394002505e-15 l2.2542485937368557,-6.937863785644389 l-7.2949016875157735,-1.7763568394002505e-15z"/>
<path fill="#97c" fill-opacity="0.6" d="m-3.6474508437578823,11.225699414489638, l7.2949016875157735,-1.7763568394002505e-15 l2.2542485937368557,6.937863785644389 l-7.2949016875157735,1.7763568394002505e-15z"/>
<path fill="#de3" fill-opacity="0.6" d="m-3.6474508437578823,25.101426985778414, l2.2542485937368557,-6.937863785644392 l7.2949016875157735,3.552713678800501e-15 l-2.2542485937368557,6.937863785644392z"/>
<path fill="#6f9" fill-opacity="0.6" d="m-3.6474508437578823,33.677098243468905, l7.2949016875157735,-7.105427357601002e-15 l2.2542485937368557,6.937863785644389 l-7.2949016875157735,7.105427357601002e-15z"/>
<path fill="#29b" fill-opacity="0.6" d="m3.647450843757891,-33.6770982434689, l-7.2949016875157735,-7.105427357601002e-15 l5.901699437494743,4.287835628845251 l7.2949016875157735,7.105427357601002e-15z"/>
<path fill="#c65" fill-opacity="0.6" d="m3.647450843757891,-25.10142698577841, l5.901699437494742,-4.287835628845244 l-7.294901687515772,0.0 l-5.901699437494742,4.287835628845244z"/>
<path fill="#e13" fill-opacity="0.6" d="m3.647450843757891,-11.225699414489636, l-7.2949016875157735,-1.7763568394002505e-15 l5.901699437494743,4.287835628845247 l7.2949016875157735,1.7763568394002505e-15z"/>
<path fill="#19e" fill-opacity="0.6" d="m3.647450843757891,11.225699414489636, l-7.2949016875157735,1.7763568394002505e-15 l5.901699437494743,-4.287835628845247 l7.2949016875157735,-1.7763568394002505e-15z"/>
<path fill="#71d" fill-opacity="0.6" d="m3.647450843757891,25.10142698577841, l5.901699437494742,4.287835628845244 l-7.294901687515772,0.0 l-5.901699437494742,-4.287835628845244z"/>
<path fill="#bf8" fill-opacity="0.6" d="m3.647450843757891,33.6770982434689, l-7.2949016875157735,7.105427357601002e-15 l5.901699437494743,-4.287835628845251 l7.2949016875157735,-7.105427357601002e-15z"/>
<path fill="#c72" fill-opacity="0.6" d="m11.803398874989494,-0.0, l-7.294901687515775,0.0 l-2.254248593736857,-6.9378637856443905 l7.294901687515775,-0.0z"/>
<path fill="#466" fill-opacity="0.6" d="m11.803398874989494,0.0, l-7.294901687515775,0.0 l-2.254248593736857,6.9378637856443905 l7.294901687515775,-0.0z"/>
<path fill="#2f3" fill-opacity="0.6" d="m9.549150281252633,-43.264990185912424, l2.254248593736854,6.937863785644382 l-5.90169943749474,-4.287835628845244 l-2.254248593736854,-6.937863785644382z"/>
<path fill="#5b7" fill-opacity="0.6" d="m9.549150281252633,-29.389262614623654, l-5.901699437494742,-4.287835628845244 l2.2542485937368557,-6.937863785644389 l5.901699437494742,4.287835628845244z"/>
<path fill="#52b" fill-opacity="0.6" d="m9.549150281252633,-29.389262614623654, l-5.901699437494742,4.287835628845244 l2.2542485937368557,6.937863785644385 l5.901699437494742,-4.287835628845244z"/>
<path fill="#27b" fill-opacity="0.6" d="m9.549150281252633,29.389262614623654, l-5.901699437494742,-4.287835628845244 l2.2542485937368557,-6.937863785644385 l5.901699437494742,4.287835628845244z"/>
<path fill="#764" fill-opacity="0.6" d="m9.549150281252633,29.389262614623654, l-5.901699437494742,4.287835628845244 l2.2542485937368557,6.937863785644389 l5.901699437494742,-4.287835628845244z"/>
<path fill="#a37" fill-opacity="0.6" d="m9.549150281252633,43.264990185912424, l2.254248593736854,-6.937863785644382 l-5.90169943749474,4.287835628845244 l-2.254248593736854,6.937863785644382z"/>
<path fill="#7fb" fill-opacity="0.6" d="m9.549150281252636,-6.937863785644388, l-5.901699437494745,-4.287835628845248 l2.2542485937368557,-6.937863785644389 l5.901699437494745,4.287835628845248z"/>
<path fill="#d4a" fill-opacity="0.6" d="m9.549150281252636,6.937863785644388, l-5.901699437494745,4.287835628845248 l2.2542485937368557,6.937863785644389 l5.901699437494745,-4.287835628845248z"/>
<path fill="#1eb" fill-opacity="0.6" d="m17.705098312484232,-18.16356320013402, l-5.901699437494742,-4.287835628845247 l-5.901699437494743,4.287835628845244 l5.901699437494742,4.287835628845247z"/>
<path fill="#7ff" fill-opacity="0.6" d="m17.705098312484232,18.16356320013402, l-5.901699437494742,4.287835628845247 l-5.901699437494743,-4.287835628845244 l5.901699437494742,-4.287835628845247z"/>
<path fill="#926" fill-opacity="0.6" d="m11.803398874989487,-36.32712640026804, l-2.254248593736854,-6.937863785644382 l5.90169943749474,-4.287835628845251 l2.254248593736854,6.937863785644382z"/>
<path fill="#a51" fill-opacity="0.6" d="m11.803398874989487,36.32712640026804, l-2.254248593736854,6.937863785644382 l5.90169943749474,4.287835628845251 l2.254248593736854,-6.937863785644382z"/>
<path fill="#d1e" fill-opacity="0.6" d="m11.80339887498949,-22.45139882897927, l-2.2542485937368575,-6.937863785644385 l5.901699437494743,4.287835628845247 l2.2542485937368575,6.937863785644385z"/>
<path fill="#d88" fill-opacity="0.6" d="m11.80339887498949,-13.875727571288778, l-2.254248593736854,6.93786378564439 l5.90169943749474,-4.28783562884525 l2.254248593736854,-6.93786378564439z"/>
<path fill="#949" fill-opacity="0.6" d="m11.803398874989494,-0.0, l5.901699437494738,-4.287835628845247 l-2.2542485937368557,-6.9378637856443905 l-5.901699437494738,4.287835628845247z"/>
<path fill="#111" fill-opacity="0.6" d="m11.803398874989494,0.0, l5.901699437494738,4.287835628845247 l-2.2542485937368557,6.9378637856443905 l-5.901699437494738,-4.287835628845247z"/>
<path fill="#a2e" fill-opacity="0.6" d="m11.80339887498949,13.875727571288778, l-2.254248593736854,-6.93786378564439 l5.90169943749474,4.28783562884525 l2.254248593736854,6.93786378564439z"/>
<path fill="#530" fill-opacity="0.6" d="m11.80339887498949,22.45139882897927, l-2.2542485937368575,6.937863785644385 l5.901699437494743,-4.287835628845247 l2.2542485937368575,-6.937863785644385z"/>
<path fill="#509" fill-opacity="0.6" d="m9.549150281252633,-29.389262614623654, l7.294901687515772,0.0 l2.2542485937368575,-6.937863785644389 l-7.294901687515772,-0.0z"/>
<path fill="#45c" fill-opacity="0.6" d="m9.549150281252633,29.389262614623654, l7.294901687515772,0.0 l2.2542485937368575,6.937863785644389 l-7.294901687515772,-0.0z"/>
<path fill="#aa4" fill-opacity="0.6" d="m16.844051968768404,-29.389262614623654, l5.901699437494745,4.287835628845251 l-7.2949016875157735,-3.552713678800501e-15 l-5.901699437494745,-4.287835628845251z"/>
<path fill="#430" fill-opacity="0.6" d="m16.844051968768404,29.389262614623654, l5.901699437494745,-4.287835628845251 l-7.2949016875157735,3.552713678800501e-15 l-5.901699437494745,4.287835628845251z"/>
<path fill="#c1d" fill-opacity="0.6" d="m17.705098312484232,-40.614962029113286, l-5.901699437494745,4.287835628845244 l7.294901687515775,0.0 l5.901699437494745,-4.287835628845244z"/>
<path fill="#69f" fill-opacity="0.6" d="m17.705098312484232,-4.287835628845247, l7.294901687515775,0.0 l-5.901699437494742,4.287835628845247 l-7.294901687515775,-0.0z"/>
<path fill="#a7e" fill-opacity="0.6" d="m17.705098312484232,4.287835628845247, l7.294901687515775,0.0 l-5.901699437494742,-4.287835628845247 l-7.294901687515775,-0.0z"/>
<path fill="#29c" fill-opacity="0.6" d="m17.705098312484232,40.614962029113286, l-5.901699437494745,-4.287835628845244 l7.294901687515775,0.0 l5.901699437494745,4.287835628845244z"/>
<path fill="#a2" fill-opacity="0.6" d="m25.000000000000004,-40.614962029113286, l-7.294901687515772,0.0 l-2.2542485937368593,-6.937863785644389 l7.294901687515772,-0.0z"/>
<path fill="#d2b" fill-opacity="0.6" d="m25.000000000000004,40.614962029113286, l-7.294901687515772,0.0 l-2.2542485937368593,6.937863785644389 l7.294901687515772,-0.0z"/>
<path fill="#14e" fill-opacity="0.6" d="m25.000000000000007,-18.163563200134018, l-2.2542485937368575,-6.937863785644385 l-7.2949016875157735,-3.552713678800501e-15 l2.2542485937368575,6.937863785644385z"/>
<path fill="#167" fill-opacity="0.6" d="m25.000000000000007,-18.163563200134018, l-2.254248593736861,6.937863785644383 l-7.29490168751577,-3.552713678800501e-15 l2.254248593736861,-6.937863785644383z"/>
<path fill="#d" fill-opacity="0.6" d="m25.000000000000007,-4.287835628845247, l-7.294901687515775,0.0 l-2.2542485937368557,-6.9378637856443905 l7.294901687515775,-0.0z"/>
<path fill="#8b3" fill-opacity="0.6" d="m25.000000000000007,4.287835628845247, l-7.294901687515775,0.0 l-2.2542485937368557,6.9378637856443905 l7.294901687515775,-0.0z"/>
<path fill="#16c" fill-opacity="0.6" d="m25.000000000000007,18.163563200134018, l-2.254248593736861,-6.937863785644383 l-7.29490168751577,3.552713678800501e-15 l2.254248593736861,6.937863785644383z"/>
<path fill="#d" fill-opacity="0.6" d="m25.000000000000007,18.163563200134018, l-2.2542485937368575,6.937863785644385 l-7.2949016875157735,3.552713678800501e-15 l2.2542485937368575,-6.937863785644385z"/>
<path fill="#2c6" fill-opacity="0.6" d="m22.74575140626315,-25.101426985778403, l-5.901699437494745,-4.287835628845251 l2.2542485937368575,-6.937863785644389 l5.901699437494745,4.287835628845251z"/>
<path fill="#902" fill-opacity="0.6" d="m22.74575140626315,25.101426985778403, l-5.901699437494745,4.287835628845251 l2.2542485937368575,6.937863785644389 l5.901699437494745,-4.287835628845251z"/>
<path fill="#2a1" fill-opacity="0.6" d="m30.901699437494745,-36.32712640026804, l-5.901699437494738,4.287835628845251 l-5.901699437494745,-4.287835628845251 l5.901699437494738,-4.287835628845251z"/>
<path fill="#e58" fill-opacity="0.6" d="m22.745751406263146,-11.225699414489634, l2.254248593736861,6.937863785644387 l2.254248593736854,-6.937863785644385 l-2.254248593736861,-6.937863785644387z"/>
<path fill="#f78" fill-opacity="0.6" d="m22.745751406263146,11.225699414489634, l2.254248593736861,-6.937863785644387 l2.254248593736854,6.937863785644385 l-2.254248593736861,6.937863785644387z"/>
<path fill="#137" fill-opacity="0.6" d="m30.901699437494745,36.32712640026804, l-5.901699437494738,-4.287835628845251 l-5.901699437494745,4.287835628845251 l5.901699437494738,4.287835628845251z"/>
<path fill="#b91" fill-opacity="0.6" d="m30.901699437494752,0.0, l-5.901699437494745,4.287835628845247 l-5.901699437494742,-4.287835628845247 l5.901699437494745,-4.287835628845247z"/>
<path fill="#bcd" fill-opacity="0.6" d="m25.000000000000007,-32.03929077142279, l-2.2542485937368575,6.937863785644389 l5.901699437494745,-4.287835628845251 l2.2542485937368575,-6.937863785644389z"/>
<path fill="#4e4" fill-opacity="0.6" d="m25.000000000000007,-18.163563200134018, l-2.2542485937368575,-6.937863785644385 l5.901699437494745,-4.287835628845251 l2.2542485937368575,6.937863785644385z"/>
<path fill="#3c7" fill-opacity="0.6" d="m25.000000000000007,18.163563200134018, l-2.2542485937368575,6.937863785644385 l5.901699437494745,4.287835628845251 l2.2542485937368575,-6.937863785644385z"/>
<path fill="#92b" fill-opacity="0.6" d="m25.000000000000007,32.03929077142279, l-2.2542485937368575,-6.937863785644389 l5.901699437494745,4.287835628845251 l2.2542485937368575,6.937863785644389z"/>
<path fill="#275" fill-opacity="0.6" d="m30.901699437494745,-13.875727571288774, l2.2542485937368575,6.937863785644386 l-5.901699437494742,-4.287835628845245 l-2.2542485937368575,-6.937863785644386z"/>
<path fill="#38a" fill-opacity="0.6" d="m30.901699437494745,13.875727571288774, l2.2542485937368575,-6.937863785644386 l-5.901699437494742,4.287835628845245 l-2.2542485937368575,6.937863785644386z"/>
<path fill="#d5e" fill-opacity="0.6" d="m30.901699437494752,-0.0, l-5.901699437494745,-4.287835628845247 l2.254248593736854,-6.937863785644385 l5.901699437494745,4.287835628845247z"/>
<path fill="#e9d" fill-opacity="0.6" d="m30.901699437494752,0.0, l-5.901699437494745,4.287835628845247 l2.254248593736854,6.937863785644385 l5.901699437494745,-4.287835628845247z"/>
<path fill="#4ed" fill-opacity="0.6" d="m33.1559480312316,-29.389262614623654, l-2.2542485937368575,-6.937863785644389 l-2.2542485937368504,6.937863785644389 l2.2542485937368575,6.937863785644389z"/>
<path fill="#a60" fill-opacity="0.6" d="m25.000000000000007,-18.163563200134018, l5.901699437494738,4.287835628845244 l5.901699437494745,-4.287835628845251 l-5.901699437494738,-4.287835628845244z"/>
<path fill="#26b" fill-opacity="0.6" d="m25.000000000000007,18.163563200134018, l5.901699437494738,-4.287835628845244 l5.901699437494745,4.287835628845251 l-5.901699437494738,4.287835628845244z"/>
<path fill="#49b" fill-opacity="0.6" d="m33.1559480312316,29.389262614623654, l-2.2542485937368575,6.937863785644389 l-2.2542485937368504,-6.937863785644389 l2.2542485937368575,-6.937863785644389z"/>
<path fill="#681" fill-opacity="0.6" d="m33.1559480312316,-6.937863785644388, l5.901699437494742,-4.287835628845246 l-2.254248593736854,-6.9378637856443905 l-5.901699437494742,4.287835628845246z"/>
<path fill="#c16" fill-opacity="0.6" d="m33.1559480312316,6.937863785644388, l5.901699437494742,4.287835628845246 l-2.254248593736854,6.9378637856443905 l-5.901699437494742,-4.287835628845246z"/>
<path fill="#74d" fill-opacity="0.6" d="m30.901699437494745,-36.32712640026804, l2.2542485937368575,6.937863785644389 l7.294901687515768,-3.552713678800501e-15 l-2.2542485937368575,-6.937863785644389z"/>
<path fill="#7e2" fill-opacity="0.6" d="m30.901699437494745,-22.451398828979265, l2.2542485937368575,-6.937863785644389 l7.294901687515768,-3.552713678800501e-15 l-2.2542485937368575,6.937863785644389z"/>
<path fill="#65" fill-opacity="0.6" d="m30.901699437494745,22.451398828979265, l2.2542485937368575,6.937863785644389 l7.294901687515768,3.552713678800501e-15 l-2.2542485937368575,-6.937863785644389z"/>
<path fill="#a91" fill-opacity="0.6" d="m30.901699437494745,36.32712640026804, l2.2542485937368575,-6.937863785644389 l7.294901687515768,3.552713678800501e-15 l-2.2542485937368575,6.937863785644389z"/>
<path fill="#6c4" fill-opacity="0.6" d="m30.901699437494752,-0.0, l7.294901687515765,0.0 l2.254248593736861,-6.937863785644387 l-7.294901687515765,-0.0z"/>
<path fill="#3f7" fill-opacity="0.6" d="m30.901699437494752,0.0, l7.294901687515765,0.0 l2.254248593736861,6.937863785644387 l-7.294901687515765,-0.0z"/>
<path fill="#e2d" fill-opacity="0.6" d="m38.19660112501052,-22.451398828979272, l5.901699437494742,4.287835628845251 l-7.294901687515768,-3.552713678800501e-15 l-5.901699437494742,-4.287835628845251z"/>
<path fill="#e99" fill-opacity="0.6" d="m38.19660112501052,22.451398828979272, l5.901699437494742,-4.287835628845251 l-7.294901687515768,3.552713678800501e-15 l-5.901699437494742,4.287835628845251z"/>
<path fill="#99d" fill-opacity="0.6" d="m39.057647468726344,-11.225699414489634, l-5.901699437494742,4.287835628845246 l7.294901687515775,8.881784197001252e-16 l5.901699437494742,-4.287835628845246z"/>
<path fill="#451" fill-opacity="0.6" d="m39.057647468726344,11.225699414489634, l-5.901699437494742,-4.287835628845246 l7.294901687515775,-8.881784197001252e-16 l5.901699437494742,4.287835628845246z"/>
<path fill="#e03" fill-opacity="0.6" d="m46.35254915624211,-11.225699414489632, l-7.294901687515768,-1.7763568394002505e-15 l-2.254248593736854,-6.9378637856443905 l7.294901687515768,1.7763568394002505e-15z"/>
<path fill="#9ed" fill-opacity="0.6" d="m46.35254915624211,11.225699414489632, l-7.294901687515768,1.7763568394002505e-15 l-2.254248593736854,6.9378637856443905 l7.294901687515768,-1.7763568394002505e-15z"/>
<path fill="#65f" fill-opacity="0.6" d="m44.09830056250526,-18.16356320013402, l2.254248593736854,-6.937863785644389 l-5.901699437494742,-4.287835628845247 l-2.254248593736854,6.937863785644389z"/>
<path fill="#ea6" fill-opacity="0.6" d="m44.09830056250526,18.16356320013402, l2.254248593736854,6.937863785644389 l-5.901699437494742,4.287835628845247 l-2.254248593736854,-6.937863785644389z"/>
<path fill="#2c1" fill-opacity="0.6" d="m44.09830056250526,-4.287835628845246, l2.254248593736854,-6.937863785644386 l-5.9016994374947345,4.2878356288452455 l-2.254248593736854,6.937863785644386z"/>
<path fill="#c5c" fill-opacity="0.6" d="m44.09830056250526,4.287835628845246, l2.254248593736854,6.937863785644386 l-5.9016994374947345,-4.2878356288452455 l-2.254248593736854,-6.937863785644386z"/>
<path fill="#f12" fill-opacity="0.6" d="m38.19660112501052,0.0, l5.901699437494742,4.287835628845246 l5.901699437494742,-4.287835628845246 l-5.901699437494742,-4.287835628845246z"/>
<path fill="#a7c" fill-opacity="0.6" d="m46.35254915624211,-25.10142698577841, l-2.254248593736854,6.937863785644389 l5.901699437494742,-4.287835628845251 l2.254248593736854,-6.937863785644389z"/>
<path fill="#f5f" fill-opacity="0.6" d="m46.35254915624211,-11.225699414489632, l5.901699437494749,-4.287835628845247 l-2.254248593736861,-6.937863785644392 l-5.901699437494749,4.287835628845247z"/>
<path fill="#bbb" fill-opacity="0.6" d="m46.35254915624211,-11.225699414489632, l5.901699437494749,4.2878356288452455 l-2.254248593736861,6.937863785644387 l-5.901699437494749,-4.2878356288452455z"/>
<path fill="#983" fill-opacity="0.6" d="m46.35254915624211,11.225699414489632, l5.901699437494749,-4.2878356288452455 l-2.254248593736861,-6.937863785644387 l-5.901699437494749,4.2878356288452455z"/>
<path fill="#180" fill-opacity="0.6" d="m46.35254915624211,11.225699414489632, l5.901699437494749,4.287835628845247 l-2.254248593736861,6.937863785644392 l-5.901699437494749,-4.287835628845247z"/>
<path fill="#62e" fill-opacity="0.6" d="m46.35254915624211,25.10142698577841, l-2.254248593736854,-6.937863785644389 l5.901699437494742,4.287835628845251 l2.254248593736854,6.937863785644389z"/>
<path fill="#6af" fill-opacity="0.6" d="m52.25424859373686,-15.51353504333488, l7.294901687515775,0.0 l-5.901699437494749,4.287835628845247 l-7.294901687515775,-0.0z"/>
<path fill="#68d" fill-opacity="0.6" d="m52.25424859373686,-6.937863785644387, l-5.901699437494749,-4.2878356288452455 l7.294901687515775,0.0 l5.901699437494749,4.2878356288452455z"/>
<path fill="#8b1" fill-opacity="0.6" d="m52.25424859373686,6.937863785644387, l-5.901699437494749,4.2878356288452455 l7.294901687515775,0.0 l5.901699437494749,-4.2878356288452455z"/>
<path fill="#7af" fill-opacity="0.6" d="m52.25424859373686,15.51353504333488, l7.294901687515775,0.0 l-5.901699437494749,-4.287835628845247 l-7.294901687515775,-0.0z"/>
<path fill="#5d6" fill-opacity="0.6" d="m59.549150281252636,-15.51353504333488, l-7.294901687515775,0.0 l-2.254248593736861,-6.937863785644392 l7.294901687515775,-0.0z"/>
<path fill="#81c" fill-opacity="0.6" d="m59.549150281252636,-6.937863785644387, l-7.294901687515775,0.0 l-2.254248593736861,6.937863785644387 l7.294901687515775,-0.0z"/>
<path fill="#406" fill-opacity="0.6" d="m59.549150281252636,6.937863785644387, l-7.294901687515775,0.0 l-2.254248593736861,-6.937863785644387 l7.294901687515775,-0.0z"/>
<path fill="#b08" fill-opacity="0.6" d="m59.549150281252636,15.51353504333488, l-7.294901687515775,0.0 l-2.254248593736861,6.937863785644392 l7.294901687515775,-0.0z"/>
<path fill="#ce5" fill-opacity="0.6" d="m57.294901687515775,0.0, l2.254248593736861,6.937863785644387 l2.254248593736847,-6.937863785644387 l-2.254248593736861,-6.937863785644387z"/>
<path fill="#3c2" fill-opacity="0.6" d="m65.45084971874738,-11.225699414489632, l-5.901699437494742,-4.287835628845247 l-5.901699437494749,4.287835628845247 l5.901699437494742,4.287835628845247z"/>
<path fill="#6c0" fill-opacity="0.6" d="m65.45084971874738,11.225699414489632, l-5.901699437494742,4.287835628845247 l-5.901699437494749,-4.287835628845247 l5.901699437494742,-4.287835628845247z"/>
<path fill="#4ea" fill-opacity="0.6" d="m65.45084971874738,-11.225699414489632, l2.254248593736861,6.937863785644386 l-5.901699437494756,4.287835628845246 l-2.254248593736861,-6.937863785644386z"/>
<path fill="#47d" fill-opacity="0.6" d="m65.45084971874738,11.225699414489632, l2.254248593736861,-6.937863785644386 l-5.901699437494756,-4.287835628845246 l-2.254248593736861,6.937863785644386z"/>
<path fill="#766" fill-opacity="0.6" d="m73.60679774997897,0.0, l-5.901699437494727,4.287835628845246 l-5.901699437494756,-4.287835628845246 l5.901699437494727,-4.287835628845246z"/>
<path fill="#831" fill-opacity="0.6" d="m67.70509831248424,-4.287835628845246, l5.901699437494727,4.287835628845246 l-2.254248593736847,-6.937863785644387 l-5.901699437494727,-4.287835628845246z"/>
<path fill="#ad3" fill-opacity="0.6" d="m67.70509831248424,4.287835628845246, l5.901699437494727,-4.287835628845246 l-2.254248593736847,6.937863785644387 l-5.901699437494727,4.287835628845246z"/>
<path fill="#a2f" fill-opacity="0.6" d="m80.90169943749474,-0.0, l-7.294901687515775,0.0 l-2.254248593736847,-6.937863785644387 l7.294901687515775,-0.0z"/>
<path fill="#62b" fill-opacity="0.6" d="m80.90169943749474,0.0, l-7.294901687515775,0.0 l-2.254248593736847,6.937863785644387 l7.294901687515775,-0.0z"/>
</g>
</svg>
